<?xml version="1.0" standalone="no"?>
<!DOCTYPE svg PUBLIC "-//W3C//DTD SVG 20010904//EN" "http://www.w3.org/TR/2001/REC-SVG-20010904/DTD/svg10.dtd">
<svg version="1.0" xmlns="http://www.w3.org/2000/svg"
 width="256.000000pt" height="256.000000pt" viewBox="0 0 256.000000 256.000000"
 preserveAspectRatio="xMidYMid meet">
<metadata>
Created by potrace 1.14, written by Peter Selinger 2001-2017
</metadata>
<g transform="translate(0.000000,256.000000) scale(0.100000,-0.100000)"
fill="#000000" stroke="none">
<path d="M2316 2333 c-4 -4 -37 -8 -74 -10 -37 -1 -74 -4 -82 -6 -14 -4 -73
-12 -152 -22 -33 -5 -38 -3 -38 15 0 12 -4 19 -8 16 -5 -3 -44 -8 -88 -10 -97
-7 -197 -17 -204 -21 -3 -2 -29 -6 -59 -10 -40 -5 -51 -4 -46 5 6 9 -1 10 -26
4 -19 -4 -43 -8 -54 -10 -11 -1 -20 -3 -20 -4 0 -1 -60 -7 -135 -13 -25 -2
-71 -14 -103 -25 -31 -12 -71 -23 -90 -25 -19 -2 -40 -7 -47 -12 -6 -4 -29
-10 -49 -12 -79 -10 -113 -23 -108 -43 4 -15 1 -17 -17 -11 -27 10 -76 -6 -76
-26 0 -10 -6 -12 -20 -8 -44 14 -159 -22 -268 -84 -24 -14 -41 -17 -61 -11
-32 9 -43 4 -60 -28 -7 -12 -16 -20 -21 -17 -18 11 -60 -18 -60 -42 0 -27 10
-25 -117 -27 -64 -2 -107 -7 -117 -15 -8 -7 -20 -10 -26 -6 -13 8 -71 -13 -82
-29 -13 -19 -9 -33 10 -33 9 1 45 -2 80 -6 66 -9 91 2 96 41 2 10 12 18 27 18
55 3 165 6 178 5 25 -2 -7 -27 -51 -40 -24 -7 -48 -17 -53 -21 -14 -12 -60
-20 -121 -21 -52 -2 -91 -20 -79 -38 3 -6 13 -11 21 -11 8 0 13 4 10 9 -6 9
40 8 50 -1 3 -3 20 -2 38 2 46 10 65 -3 35 -24 -27 -19 -58 -20 -93 -5 -14 7
-33 8 -43 4 -10 -5 -31 -9 -48 -10 -66 -4 -64 -3 -63 -43 0 -37 1 -38 36 -34
33 4 34 3 28 -21 -4 -19 -2 -26 14 -30 27 -7 15 -39 -14 -36 -63 4 -66 2 -66
-48 0 -53 -6 -49 85 -53 40 -2 45 -12 13 -28 -18 -8 -19 -11 -6 -11 41 -2 -9
-42 -57 -46 -22 -1 -35 -18 -35 -43 l1 -27 19 23 c25 30 79 49 90 32 6 -9 12
-9 30 0 16 9 25 9 33 1 6 -6 9 -11 6 -12 -39 -7 -61 -10 -96 -12 -47 -3 -87
-35 -81 -65 3 -13 12 -16 40 -14 33 3 36 1 31 -17 -3 -14 0 -23 11 -27 26 -10
19 -29 -11 -32 -47 -3 -73 -22 -73 -54 0 -15 3 -28 8 -29 57 -4 99 -12 106
-19 5 -5 -6 -24 -28 -46 -29 -29 -41 -35 -61 -30 -23 6 -25 3 -25 -24 0 -33 5
-35 44 -20 14 5 26 6 26 2 0 -4 -16 -14 -35 -21 -27 -10 -35 -18 -35 -37 0
-26 5 -26 59 -6 10 4 12 1 6 -8 -5 -8 -1 -18 10 -26 17 -13 17 -14 -6 -23 -38
-16 -69 -47 -69 -69 0 -22 2 -22 80 -24 25 0 39 -3 33 -5 -7 -3 -13 -17 -13
-33 0 -25 -5 -29 -50 -41 -42 -11 -50 -17 -50 -36 0 -26 7 -28 47 -12 15 6 30
10 32 9 2 -1 8 4 12 12 7 10 9 10 9 1 0 -7 12 -13 28 -13 24 -1 22 -3 -13 -14
-22 -8 -57 -17 -77 -20 -31 -6 -38 -11 -38 -30 0 -21 4 -23 35 -19 27 4 35 1
35 -11 0 -13 9 -16 45 -14 25 2 45 7 45 11 0 5 5 5 10 2 6 -3 10 -2 10 2 0 7
113 48 160 58 3 1 19 4 35 8 69 17 77 17 66 3 -7 -8 -10 -20 -9 -27 2 -9 -11
-15 -37 -19 -32 -4 -41 -10 -43 -27 -3 -21 -9 -23 -65 -24 -34 -1 -84 -1 -111
0 -30 0 -53 -4 -58 -12 -6 -9 -12 -9 -27 0 -17 10 -23 10 -37 -5 -10 -9 -21
-18 -26 -18 -4 -1 -12 -2 -18 -3 -5 0 -10 -7 -10 -15 0 -14 12 -18 92 -32 45
-7 109 14 105 35 -3 19 41 27 137 26 56 0 70 -3 72 -17 2 -15 -5 -18 -64 -29
-4 -1 -18 -6 -32 -11 -37 -14 -58 -18 -128 -23 -79 -5 -102 -12 -96 -29 4 -10
29 -12 99 -10 55 2 95 -1 95 -7 0 -5 -6 -9 -12 -9 -7 0 -24 -6 -38 -13 -26
-13 -127 -16 -146 -5 -15 10 -63 3 -76 -10 -8 -8 1 -10 31 -8 23 2 44 0 46 -5
3 -4 -14 -9 -37 -11 -39 -3 -43 -6 -46 -31 l-3 -28 78 4 c50 2 91 10 113 22
32 17 62 25 100 27 8 0 20 4 25 8 10 8 48 13 71 11 6 -1 9 -14 6 -30 l-4 -29
49 9 c31 6 55 17 68 33 11 13 33 26 49 30 21 5 27 12 23 25 -2 10 3 23 14 30
11 6 19 7 19 3 0 -13 34 -8 59 10 15 11 35 14 62 11 34 -5 42 -2 60 21 11 14
24 24 28 22 4 -3 34 9 67 25 32 17 67 28 78 25 20 -5 130 30 198 65 9 4 27 6
40 4 13 -3 49 4 78 15 30 11 71 20 90 20 19 0 53 10 75 21 22 12 51 23 65 24
14 1 35 5 48 9 13 5 22 3 22 -3 0 -7 8 -7 25 1 14 6 25 17 25 25 0 7 7 13 16
13 9 0 22 7 28 16 14 18 94 36 102 23 3 -5 -1 -9 -9 -9 -8 0 -17 -6 -20 -14
-7 -19 70 -31 107 -16 15 5 44 10 65 10 20 0 41 4 46 9 6 6 29 14 53 19 37 9
42 8 42 -8 0 -17 7 -18 68 -15 37 2 92 6 122 10 30 3 73 5 96 5 25 0 46 5 54
15 7 8 23 15 35 15 12 0 28 6 34 14 9 11 5 16 -20 25 -17 6 -42 8 -55 5 -43
-11 -27 22 21 45 54 25 66 26 58 4 -5 -13 -3 -15 13 -8 10 4 29 8 42 9 37 2
30 21 -10 24 -29 2 -36 7 -31 19 5 13 1 15 -23 9 -42 -11 -20 7 26 20 25 7 42
8 48 2 6 -6 12 -5 17 2 8 13 -11 30 -32 30 -6 0 -15 -5 -18 -10 -5 -8 -11 -7
-21 1 -11 9 -21 9 -42 -1 -36 -17 -52 -20 -52 -9 0 5 7 9 16 9 11 0 14 6 9 20
-6 17 -2 20 29 20 23 0 39 6 48 19 9 13 19 17 28 11 23 -14 40 1 40 36 0 24
-5 34 -15 34 -8 0 -15 7 -15 15 0 9 -9 15 -25 15 -14 0 -25 -4 -25 -9 0 -13
-100 -25 -112 -13 -6 6 3 19 27 37 32 25 44 28 101 26 52 -2 64 1 64 13 0 12
-16 15 -82 16 -46 0 -96 1 -113 2 -16 0 -48 -2 -71 -5 -23 -3 -47 -1 -55 4
-12 7 -12 9 1 10 8 1 25 0 37 0 11 -1 24 3 29 10 4 7 3 10 -4 5 -6 -3 -13 -2
-17 4 -4 6 5 10 19 10 18 0 26 -5 26 -17 1 -16 3 -16 18 3 13 15 31 21 72 22
41 2 59 8 72 22 9 11 28 20 42 20 21 0 26 5 26 25 0 14 -5 25 -11 25 -6 0 -9
7 -5 15 3 8 0 16 -7 16 -34 5 -54 4 -68 -3 -26 -12 -73 -18 -91 -12 -21 6 -24
34 -4 34 7 0 19 7 26 15 9 11 33 15 86 15 64 0 74 2 74 18 0 15 -12 17 -132
16 -73 -1 -137 -3 -143 -4 -5 -1 -26 -2 -45 -1 -27 1 -31 4 -19 11 9 5 27 12
40 14 13 3 26 5 29 6 3 1 20 1 39 0 22 -1 31 2 27 9 -7 11 20 15 92 14 24 0
32 3 28 13 -3 8 -1 15 4 15 6 1 15 3 20 4 6 1 21 3 35 4 22 1 25 6 25 36 0 24
-5 35 -15 35 -8 0 -15 5 -15 10 0 15 -31 12 -93 -9 -32 -11 -58 -16 -58 -10
-1 5 -2 14 -3 20 0 7 -10 15 -21 19 -17 6 -17 7 7 13 23 6 45 43 33 55 -6 6
-42 5 -128 -2 -73 -7 -86 8 -19 20 20 4 42 9 47 13 6 3 24 7 40 8 88 7 129 14
136 24 4 7 24 15 45 18 33 5 39 10 42 34 3 22 -1 30 -17 34 -12 3 -21 9 -21
14 0 12 -45 11 -90 -2 -24 -8 -47 -8 -65 -2 l-28 9 30 33 c26 28 36 32 74 30
77 -5 119 0 119 14 0 10 -20 13 -77 13 -43 0 -87 1 -98 3 -11 1 -53 -1 -93 -6
-39 -5 -78 -6 -85 -1 -12 8 11 13 41 9 7 -1 11 4 10 11 -2 7 7 14 20 16 12 2
22 -1 22 -7 0 -6 7 -11 15 -11 8 0 15 6 15 13 0 8 19 13 56 14 31 1 67 9 80
18 13 8 39 15 59 15 32 0 35 2 35 30 0 24 -4 30 -22 30 -12 0 -18 3 -15 6 3 4
2 14 -3 24 -9 16 -12 16 -62 -1 -28 -9 -58 -25 -64 -34 -17 -23 -37 -10 -24
16 6 10 15 19 21 19 5 0 15 5 22 10 7 6 23 19 37 30 l25 20 -52 -6 c-28 -3
-60 -1 -70 4 -17 10 -16 11 7 20 14 5 44 10 68 10 24 1 49 5 55 10 7 5 27 13
45 17 17 3 32 10 32 15 0 9 -46 7 -112 -6 -21 -3 -38 -3 -38 1 0 9 50 49 66
51 6 1 21 5 32 8 13 4 22 1 26 -9 7 -18 26 -11 26 10 0 13 -46 31 -65 26 -5
-2 -38 -5 -72 -8 -58 -4 -63 -2 -63 17 0 20 -28 28 -44 13z m-186 -99 c0 -8 5
-12 10 -9 6 4 52 6 103 6 138 1 144 0 128 -10 -8 -5 -19 -7 -26 -5 -6 3 -23
-1 -37 -9 -15 -7 -41 -12 -60 -10 -69 7 -107 4 -130 -10 -35 -23 -175 -32
-194 -13 -8 8 -20 13 -27 11 -32 -10 -171 -15 -162 -6 10 10 154 24 227 22 20
0 40 4 43 9 3 6 12 10 18 10 7 0 6 -4 -3 -10 -8 -5 -11 -10 -7 -10 5 0 21 8
35 19 48 33 82 40 82 15z m-380 -145 c0 -18 -66 -33 -88 -20 -13 8 -10 11 18
19 39 11 70 11 70 1z m276 -14 c-23 -17 -36 -19 -36 -6 0 5 8 12 18 14 32 9
37 6 18 -8z m-60 -10 c-11 -8 -29 -15 -40 -15 -36 0 7 25 49 29 6 0 1 -6 -9
-14z m-336 -25 c0 -5 -4 -10 -9 -10 -6 0 -13 5 -16 10 -3 6 1 10 9 10 9 0 16
-4 16 -10z m-975 -80 c-3 -5 -1 -10 6 -10 8 0 8 -4 -1 -15 -7 -8 -16 -13 -20
-10 -5 3 -11 1 -15 -5 -3 -5 -16 -10 -28 -10 -22 1 -22 1 -3 15 23 17 14 20
-15 5 -15 -9 -19 -7 -19 5 0 9 5 15 12 13 7 -3 28 1 47 8 45 16 43 16 36 4z
m45 -240 c0 -5 -4 -10 -9 -10 -6 0 -13 5 -16 10 -3 6 1 10 9 10 9 0 16 -4 16
-10z m-597 -30 c16 0 26 -4 22 -9 -3 -5 -17 -8 -30 -5 -14 2 -34 0 -45 -6 -17
-9 -20 -8 -20 11 0 17 4 20 23 15 12 -3 35 -6 50 -6z m415 -25 c34 -4 52 -12
52 -21 0 -12 -11 -18 -31 -16 -3 0 -31 3 -63 6 -63 6 -76 11 -76 29 0 13 36
14 118 2z m267 -14 c-3 -6 -11 -8 -17 -5 -6 4 -5 9 3 15 16 10 23 4 14 -10z
m-465 -81 c0 -5 -10 -19 -22 -30 -18 -17 -20 -23 -9 -29 11 -7 10 -10 -5 -15
-19 -6 -83 0 -91 8 -11 11 18 42 42 44 14 1 38 8 53 17 33 17 32 17 32 5z
m267 -6 c-3 -3 -12 -4 -19 -1 -8 3 -5 6 6 6 11 1 17 -2 13 -5z m-202 -55 c-4
-5 -13 -9 -22 -9 -13 0 -13 3 -3 15 13 15 35 11 25 -6z m-177 -38 c11 -7 10
-9 -3 -14 -9 -4 -14 -3 -10 2 3 5 -1 12 -7 14 -7 3 -8 6 -3 6 6 0 16 -3 23 -8z
m-2 -128 c-10 -10 -19 5 -10 18 6 11 8 11 12 0 2 -7 1 -15 -2 -18z m404 -33
c12 -8 11 -10 -7 -10 -12 0 -25 5 -28 10 -8 13 15 13 35 0z m77 -24 c0 -8 -9
-17 -19 -19 -13 -4 -18 0 -18 14 0 12 7 19 18 19 10 0 19 -6 19 -14z m1728 4
c3 -5 1 -10 -4 -10 -6 0 -11 5 -11 10 0 6 2 10 4 10 3 0 8 -4 11 -10z m-1758
-62 c-3 -8 -6 -5 -6 6 -1 11 2 17 5 13 3 -3 4 -12 1 -19z m-68 -25 c-10 -11
-14 -11 -20 -1 -10 17 -2 28 17 21 11 -4 12 -8 3 -20z m-277 -31 c8 -31 -18
-54 -76 -67 -51 -12 -73 -7 -45 10 6 4 8 13 5 20 -3 8 11 17 40 25 24 7 47 17
50 21 9 15 21 10 26 -9z m78 -91 c-28 -16 -60 -22 -60 -12 0 8 18 14 65 19 6
1 3 -2 -5 -7z m2030 -35 c0 -2 -7 -6 -15 -10 -8 -3 -15 -1 -15 4 0 6 7 10 15
10 8 0 15 -2 15 -4z m-2278 -74 c4 -4 -9 -8 -28 -9 -26 -2 -34 1 -34 13 0 13
6 15 28 9 15 -3 30 -9 34 -13z m1957 -21 c29 2 41 -1 41 -11 0 -5 -18 -10 -41
-10 -22 0 -49 -5 -60 -10 -15 -9 -21 -7 -25 5 -10 26 14 45 43 34 15 -5 33 -9
42 -8z m-1420 -32 c-13 -26 -20 -21 -12 9 3 12 9 19 14 16 5 -3 4 -14 -2 -25z
m1486 -49 c-4 -7 14 -8 52 -4 32 4 81 7 109 8 45 1 50 -1 46 -17 -6 -25 -12
-27 -127 -31 -55 -2 -110 -6 -122 -10 -79 -22 -157 -31 -148 -17 7 13 -117 15
-143 3 -9 -5 -33 -5 -52 -2 -32 5 -30 7 35 19 39 7 104 15 145 17 90 4 141 14
135 24 -6 9 17 17 53 19 13 0 21 -3 17 -9z m255 -5 c11 -13 8 -15 -13 -15 -19
0 -25 4 -21 15 4 8 10 15 14 15 4 0 13 -7 20 -15z m-1830 -26 c0 -14 -17 -10
-23 5 -4 10 -1 13 9 9 7 -3 14 -9 14 -14z m-277 -12 c7 -19 -4 -34 -33 -47
-14 -6 -36 -17 -50 -25 -22 -13 -25 -13 -28 0 -2 9 -7 13 -12 10 -5 -3 -11 -1
-15 5 -3 5 5 14 19 20 14 5 26 13 26 18 0 7 44 23 81 31 4 0 9 -5 12 -12z
m-226 -39 c-3 -8 -6 -5 -6 6 -1 11 2 17 5 13 3 -3 4 -12 1 -19z m2123 -28 c0
-5 -8 -10 -17 -10 -15 0 -16 2 -3 10 19 12 20 12 20 0z m-1340 -19 c0 -5 -7
-14 -15 -21 -12 -10 -15 -10 -15 2 0 8 3 18 7 21 9 10 23 9 23 -2z m-207 -78
c-7 -2 -21 -2 -30 0 -10 3 -4 5 12 5 17 0 24 -2 18 -5z m-90 -35 c-18 -6 -33
-17 -33 -24 0 -8 -7 -14 -16 -14 -25 0 -12 33 15 37 14 2 27 6 30 8 2 3 11 5
20 4 9 -1 1 -6 -16 -11z m-370 -5 c-7 -2 -19 -2 -25 0 -7 3 -2 5 12 5 14 0 19
-2 13 -5z m467 -82 c-11 -22 -86 -39 -102 -23 -12 12 -2 19 36 26 16 3 31 8
34 11 3 3 14 5 24 5 15 0 17 -3 8 -19z m-390 -225 c0 -2 -7 -6 -15 -10 -8 -3
-15 -1 -15 4 0 6 7 10 15 10 8 0 15 -2 15 -4z"/>
<path d="M215 770 c-3 -5 -1 -10 4 -10 6 0 11 5 11 10 0 6 -2 10 -4 10 -3 0
-8 -4 -11 -10z"/>
<path d="M2535 2171 c-6 -11 9 -23 19 -14 9 9 7 23 -3 23 -6 0 -12 -4 -16 -9z"/>
<path d="M2515 2130 c3 -5 12 -10 20 -10 8 0 17 5 20 10 4 6 -5 10 -20 10 -15
0 -24 -4 -20 -10z"/>
<path d="M2528 1690 c-15 -4 -30 -5 -35 -1 -4 3 -1 -3 7 -13 14 -18 14 -19 -7
-8 -28 15 -81 16 -67 2 34 -34 134 -26 134 10 0 11 -1 20 -2 19 -2 0 -15 -4
-30 -9z"/>
<path d="M2535 1240 c-3 -5 1 -10 9 -10 9 0 16 5 16 10 0 6 -4 10 -9 10 -6 0
-13 -4 -16 -10z"/>
<path d="M2525 768 c-20 -11 -36 -30 -31 -35 8 -8 66 21 66 33 0 17 -8 17 -35
2z"/>
<path d="M2316 445 c-22 -22 -20 -28 11 -67 49 -58 58 -67 84 -77 24 -9 31 -5
76 42 60 62 68 80 44 101 -25 23 -37 20 -73 -14 -17 -16 -32 -30 -34 -30 -2 0
-14 11 -27 24 -33 33 -61 40 -81 21z"/>
<path d="M1417 293 c-16 -15 -5 -23 33 -23 51 0 55 -24 4 -27 -43 -2 -43 -3
-49 -36 -3 -15 1 -32 11 -41 17 -17 29 -19 59 -7 11 5 25 4 32 -1 28 -22 38
97 11 129 -11 13 -90 18 -101 6z m78 -82 c8 -15 -35 -35 -47 -23 -6 6 -7 15
-4 21 9 14 43 14 51 2z"/>
<path d="M1568 244 c-4 -66 7 -103 24 -86 7 7 13 31 14 53 2 42 18 63 42 54 7
-2 12 4 12 15 0 22 -12 25 -40 10 -13 -7 -21 -7 -25 0 -14 23 -23 7 -27 -46z"/>
<path d="M1693 288 c-4 -7 -8 -38 -8 -68 0 -30 -4 -62 -8 -71 -14 -28 19 -50
70 -47 52 2 79 28 62 59 -9 19 -52 35 -76 31 -7 -2 -13 2 -13 8 0 5 13 10 29
10 33 0 63 24 55 44 -3 8 -1 17 5 21 24 14 8 22 -48 24 -39 1 -62 -3 -68 -11z
m75 -31 c2 -10 0 -17 -5 -18 -4 0 -16 -2 -25 -4 -23 -4 -33 12 -18 29 14 18
44 14 48 -7z m12 -107 c0 -10 -26 -20 -51 -20 -21 0 -26 26 -7 32 17 6 58 -3
58 -12z"/>
<path d="M1856 284 c-16 -16 -17 -18 -20 -56 -5 -53 40 -85 103 -73 42 8 28
28 -20 29 -45 1 -51 26 -7 26 54 0 77 40 42 74 -20 21 -78 21 -98 0z m74 -28
c0 -16 -19 -25 -37 -18 -23 8 -14 32 12 32 15 0 25 -6 25 -14z"/>
<path d="M1999 298 c-4 -20 -1 -127 5 -136 15 -25 34 7 32 53 -3 39 0 44 22
50 13 3 26 5 28 3 1 -2 4 -28 6 -57 2 -41 7 -55 20 -57 14 -2 16 7 16 54 -1
32 -5 65 -10 75 -10 19 -40 22 -69 7 -13 -7 -19 -7 -19 0 0 8 -29 16 -31 8z"/>
<path d="M2171 266 c19 -32 19 -37 4 -65 -19 -37 -19 -46 -2 -46 6 0 20 13 30
29 l19 29 18 -28 c19 -28 50 -43 50 -23 0 5 -9 22 -20 37 -16 24 -17 31 -6 47
23 34 25 50 6 51 -10 1 -23 -11 -32 -30 l-15 -32 -17 33 c-10 19 -24 32 -36
32 -19 0 -19 -1 1 -34z"/>
<path d="M1149 270 c-1 -5 -1 -17 -1 -25 0 -90 1 -95 30 -95 34 0 52 16 52 46
0 28 -26 55 -45 48 -10 -4 -15 0 -15 15 0 21 -19 30 -21 11z m55 -56 c11 -29
6 -44 -14 -44 -16 0 -20 7 -20 30 0 32 23 42 34 14z"/>
<path d="M2395 250 c-15 -17 -16 -24 -7 -45 13 -29 29 -31 60 -9 27 19 28 28
2 54 -25 25 -32 25 -55 0z"/>
<path d="M1247 243 c-4 -6 1 -28 10 -48 17 -35 17 -38 0 -49 -21 -16 -11 -29
13 -16 19 10 57 107 46 117 -3 3 -12 -9 -20 -28 l-14 -34 -14 35 c-9 21 -17
30 -21 23z"/>
</g>
</svg>
